<svg xmlns="http://www.w3.org/2000/svg" xmlns:xlink="http://www.w3.org/1999/xlink" width="477" height="350" fill="none" xmlns:v="https://vecta.io/nano"><g fill="#387ed1"><path d="M136.115 344.637c1.45 0 2.682 1.232 2.682 2.681S137.565 350 136.115 350s-2.682-1.232-2.682-2.682c0-1.522 1.16-2.681 2.682-2.681z"/><use xlink:href="#B"/><use xlink:href="#C"/><use xlink:href="#D"/><path d="M166.266 344.637c1.45 0 2.682 1.232 2.682 2.681S167.716 350 166.266 350s-2.681-1.232-2.681-2.682c0-1.522 1.159-2.681 2.681-2.681zm0-20.149c1.45 0 2.682 1.232 2.682 2.681s-1.232 2.682-2.682 2.682-2.681-1.232-2.681-2.682 1.159-2.681 2.681-2.681zm0-20.15c1.45 0 2.682 1.233 2.682 2.682s-1.232 2.682-2.682 2.682-2.681-1.232-2.681-2.682 1.159-2.682 2.681-2.682zm0-20.149c1.45 0 2.682 1.232 2.682 2.682s-1.232 2.682-2.682 2.682-2.681-1.232-2.681-2.682 1.159-2.682 2.681-2.682zm30.079 60.448c1.45 0 2.682 1.232 2.682 2.681S197.795 350 196.345 350s-2.682-1.232-2.682-2.682c.073-1.522 1.232-2.681 2.682-2.681zm0-20.149c1.45 0 2.682 1.232 2.682 2.681s-1.232 2.682-2.682 2.682-2.682-1.232-2.682-2.682c.073-1.449 1.232-2.681 2.682-2.681zm0-20.15c1.45 0 2.682 1.233 2.682 2.682s-1.232 2.682-2.682 2.682-2.682-1.232-2.682-2.682c.073-1.449 1.232-2.682 2.682-2.682zm0-20.149c1.45 0 2.682 1.232 2.682 2.682s-1.232 2.682-2.682 2.682-2.682-1.232-2.682-2.682c.073-1.45 1.232-2.682 2.682-2.682zm-90.381 60.448c1.45 0 2.682 1.232 2.682 2.681S107.414 350 105.964 350s-2.682-1.232-2.682-2.682c0-1.522 1.16-2.681 2.682-2.681z"/><use xlink:href="#B" x="-30.151"/><use xlink:href="#C" x="-30.151"/><use xlink:href="#D" x="-30.151"/><path d="M75.813 344.637c1.45 0 2.682 1.232 2.682 2.681S77.262 350 75.813 350s-2.682-1.232-2.682-2.682c0-1.522 1.16-2.681 2.682-2.681z"/><use xlink:href="#B" x="-60.302"/><use xlink:href="#C" x="-60.302"/><use xlink:href="#D" x="-60.302"/></g><path d="M198.592 169.455c29.209 0 55.301 2.465 72.479 6.306v-61.607H126.113v61.607c17.178-3.841 43.27-6.306 72.479-6.306z" fill="#e8e8ed"/><path d="M304.411 119.952H92.773a2.91 2.91 0 0 1-2.899-2.899v-5.798a2.91 2.91 0 0 1 2.899-2.899h211.638a2.91 2.91 0 0 1 2.899 2.899v5.798a2.91 2.91 0 0 1-2.899 2.899z" fill="#f4f4f8"/><path d="M369.424 146.117s9.423 8.408 25.658 0c0 0-2.319 15.438-12.829 24.86 0 0-13.191 6.089-25.512 6.451 0 0 10.581-7.248 12.683-31.311z" fill="#e8e8ed"/><path d="M0 226.206s16.743 10.945 30.876.943c0 0 3.914 32.035 16.453 37.181 0 0-6.958 6.016-20.222 3.914.072 0-12.466-4.639-27.107-42.038z" fill="#f4f4f8"/><path d="M243.891 57.186s-8.335-19.352-24.86-17.83c0 0 16.018-30.948 8.48-39.356 0 0 18.554 17.178 20.439 23.846 0 0 3.696 5.218-4.059 33.34z" fill="#e8e8ed"/><path d="M384.862 328.981h-59.215c-.652 0-1.232-.58-1.232-1.232v-74.653c0-.652.58-1.232 1.232-1.232h59.215c.653 0 1.232.58 1.232 1.232v74.653c0 .725-.507 1.232-1.232 1.232z" fill="#f4f4f8"/><path opacity=".5" d="M368.811 254.918l-1.189-9.2-24.439 3.159 1.19 9.2 24.438-3.159z" fill="#c4c4c4"/><path opacity=".5" d="M378.267 268.606H334.49c-.653 0-1.233-.58-1.233-1.232v-.652c0-.652.58-1.232 1.233-1.232h43.777c.652 0 1.232.58 1.232 1.232v.652a1.22 1.22 0 0 1-1.232 1.232z" fill="#ccc"/><path opacity=".25" d="M354.421 285.204H334.49c-.653 0-1.233-.58-1.233-1.232v-.58c0-.652.58-1.232 1.233-1.232h19.931c.653 0 1.232.58 1.232 1.232v.652c0 .653-.579 1.16-1.232 1.16zm23.846 0h-18.12c-.652 0-1.232-.58-1.232-1.232v-.58c0-.652.58-1.232 1.232-1.232h18.12c.652 0 1.232.58 1.232 1.232v.652c0 .653-.58 1.16-1.232 1.16z" fill="#ccc"/><path opacity=".25" d="M345.071 293.539H334.49c-.653 0-1.233-.58-1.233-1.232v-.652c0-.653.58-1.233 1.233-1.233h10.581c.653 0 1.233.58 1.233 1.233v.652c0 .652-.58 1.232-1.233 1.232zm18.7 0h-13.336c-.652 0-1.232-.58-1.232-1.232v-.652c0-.653.58-1.233 1.232-1.233h13.336c.652 0 1.232.58 1.232 1.233v.652c0 .652-.58 1.232-1.232 1.232zm14.496 0h-7.755c-.653 0-1.233-.58-1.233-1.232v-.652c0-.653.58-1.233 1.233-1.233h7.755c.652 0 1.232.58 1.232 1.233v.652c0 .652-.58 1.232-1.232 1.232z" fill="#ccc"/><path opacity=".25" d="M378.267 276.941h-30.296c-.653 0-1.233-.579-1.233-1.232v-.652c0-.652.58-1.232 1.233-1.232h30.296c.652 0 1.232.58 1.232 1.232v.652c0 .653-.58 1.232-1.232 1.232zm-36.095 0h-7.755c-.652 0-1.232-.579-1.232-1.232v-.652c0-.652.58-1.232 1.232-1.232h7.755c.653 0 1.232.58 1.232 1.232v.652a1.22 1.22 0 0 1-1.232 1.232z" fill="#ccc"/><path opacity=".25" d="M354.421 310.137H334.49c-.653 0-1.233-.58-1.233-1.232v-.653c0-.652.58-1.232 1.233-1.232h19.931c.653 0 1.232.58 1.232 1.232v.653c0 .652-.579 1.232-1.232 1.232z" fill="#ccc"/><path opacity=".25" d="M378.267 301.802h-30.296c-.653 0-1.233-.58-1.233-1.232v-.653c0-.652.58-1.232 1.233-1.232h30.296c.652 0 1.232.58 1.232 1.232v.653c0 .724-.58 1.232-1.232 1.232zm-36.095 0h-7.755c-.652 0-1.232-.58-1.232-1.232v-.653c0-.652.58-1.232 1.232-1.232h7.755c.653 0 1.232.58 1.232 1.232v.653c0 .724-.507 1.232-1.232 1.232z" fill="#ccc"/><path opacity=".8" d="M331.011 298.685H119.373a2.91 2.91 0 0 1-2.9-2.899V156.627a2.91 2.91 0 0 1 2.9-2.899h211.638a2.91 2.91 0 0 1 2.899 2.899v139.159a2.91 2.91 0 0 1-2.899 2.899z" fill="#fcb040"/><path d="M285 158.735c-1.133 0-2-.942-2-2.174V108h4v48.561c0 1.232-.867 2.174-2 2.174zM290 170h-10l.9-7.2c.7-1.7 2.3-2.8 4.1-2.8s3.4 1.1 4.1 2.8l.9 7.2z" fill="#387ed1"/><path opacity=".5" d="M70.087 241.427h91.541l9.929 14.496V197.94H70.087v43.487zm84.365 82.118h72.479v-36.239h-61.607l-10.872-14.496v50.735z" fill="#e8e8ed"/><path d="M289.045 197.795l5.581-.145-.29 1.522c-1.667.434-3.189 1.232-4.493 2.391-1.377 1.088-2.9 3.045-4.494 5.581l-28.774 44.14h-1.957-1.957l-6.016-47.329c-.145-1.667-.725-2.899-1.522-3.624-.725-.725-1.377-1.232-2.247-1.232l.435-1.522c2.537.145 6.161.145 10.872.145l11.452-.145-.29 1.522c-1.522 0-2.682.29-3.624.435-.87.29-1.522.58-1.957 1.377-.435.58-.58 1.522-.58 2.682 0 .58 0 1.232.145 1.812l3.769 33.485 19.859-30.586c1.522-2.247 2.247-4.204 2.247-5.581 0-1.232-.58-2.102-1.667-2.682s-2.537-.869-4.639-1.087l.435-1.522c1.885.363 5.074.363 9.712.363zm30.441 41.023l-1.956 5.435c-1.088 2.9-2.392 4.857-4.204 6.016s-3.769 1.812-5.726 1.812c-2.537 0-4.494-.725-5.581-2.392-.725-1.087-1.087-2.246-1.087-3.769 0-1.232.145-2.681.58-4.493-3.189 7.103-7.393 10.727-12.684 10.727-2.682 0-4.856-.725-6.306-2.392-1.377-1.667-2.102-3.914-2.102-6.813 0-4.494 1.233-9.205 3.624-14.133 2.392-5.002 5.436-9.205 9.06-12.539s7.248-5.001 10.727-5.001c1.377 0 2.392.435 3.334 1.232.87.725 1.377 1.957 1.522 3.624l1.087-3.769c4.059 0 7.683-.435 11.017-1.087l-9.93 33.63c-.289.87-.289 1.522-.289 2.102 0 1.087.434 1.667 1.522 1.667 1.812 0 3.334-1.957 4.638-5.871l1.377-3.624h1.522v-.362h-.145zm-11.451-21.237c0-1.232-.145-2.102-.58-2.899-.435-.725-1.087-.87-1.957-.87-1.667 0-3.624 1.522-5.871 4.639-2.102 3.044-4.059 6.958-5.581 11.597s-2.246 9.059-2.246 13.408c0 1.667.145 2.899.434 3.624s.87 1.087 1.667 1.087c1.088 0 2.247-.724 3.624-2.247s2.682-3.768 4.059-6.595c1.377-2.899 2.537-6.306 3.479-10.22l-.29 1.812 3.334-11.741c-.072-.58-.072-1.015-.072-1.595zm37.181-1.232c1.233-1.957 2.537-3.334 4.059-4.059 1.377-.724 3.044-1.232 4.856-1.232 1.957 0 3.479.58 4.494 1.667s1.667 2.537 1.667 4.349c0 1.377-.29 2.682-.87 3.914s-1.522 2.102-2.537 2.899-2.246 1.087-3.623 1.087c-1.523 0-2.537-.435-3.479-1.232-.725-.725-1.233-1.812-1.233-3.334 0-1.232.29-2.247.725-3.334.58-1.087 1.377-1.957 2.247-2.682s1.957-1.232 3.189-1.522c-.58-.145-.87-.145-.87-.145-2.681 0-5.291 1.957-7.972 5.726s-5.436 10.582-8.263 20.512l-3.189 12.176h-10.582l9.205-32.543c.29-1.087.435-1.812.435-2.247 0-1.087-.435-1.522-1.232-1.522-.87 0-1.812.435-2.537 1.377-.725.87-1.522 2.392-2.392 4.639l-1.522 3.769h-1.522l1.957-5.726c1.812-5.146 5.291-7.683 10.364-7.683 3.914 0 5.726 1.957 5.726 6.016 0 1.377-.145 2.899-.58 4.494l-.579 2.536c1.522-3.406 2.899-6.088 4.058-7.9zm21.454 34.065c1.957 0 3.479-.58 4.494-1.667 1.232-1.232 1.812-2.682 1.812-4.639 0-1.667-.29-3.334-1.087-5.001-.725-1.667-1.812-3.624-3.189-5.87-.145-.29-.725-1.232-1.812-2.682s-1.667-3.044-2.247-4.349c-.435-1.377-.725-2.682-.725-4.059 0-2.101.58-4.058 1.667-5.725s2.682-3.045 4.639-3.914c2.101-.87 4.493-1.377 7.392-1.377 3.189 0 6.016.579 8.118 1.812 2.247 1.232 3.334 3.189 3.334 6.015 0 .87-.145 1.667-.435 2.537s-.87 1.522-1.522 2.102c-.725.58-1.522.87-2.537.87-1.232 0-2.246-.435-3.044-1.377s-1.232-2.102-1.232-3.624c0-1.232.29-2.392.725-3.479s1.087-1.957 1.667-2.682c-.725-.435-1.667-.58-2.682-.58-1.812 0-3.334.58-4.204 1.667-1.087 1.087-1.522 2.682-1.667 4.639 0 1.377.29 2.537.725 3.624.435 1.232 1.232 2.247 1.957 3.479s1.377 2.102 1.812 2.681c1.667 2.682 2.682 4.857 3.479 6.451.725 1.667 1.087 3.479 1.087 5.146 0 2.247-.58 4.204-1.667 5.871-1.232 1.812-2.899 3.189-5.001 4.059-2.102 1.087-4.638 1.522-7.538 1.522-3.623 0-6.45-.725-8.914-2.102-2.392-1.377-3.479-3.624-3.479-6.596 0-1.522.289-2.681 1.087-3.769.725-1.087 1.812-1.522 3.189-1.522s2.392.58 3.189 1.667c.725 1.087 1.232 2.537 1.232 4.204 0 1.087-.145 1.957-.29 2.899-.29.87-.435 1.667-.725 2.247s-.29.87-.435 1.087c.725.29 1.595.435 2.827.435zm34.21-34.355c0-1.087-.435-1.522-1.377-1.522s-1.812.435-2.537 1.377-1.522 2.392-2.247 4.494l-1.522 3.769h-1.522l2.102-5.726c1.812-5.146 5.291-7.683 10.365-7.683 2.246 0 4.058.58 5.146 1.667s1.522 2.537 1.522 4.349c0 1.377-.29 2.899-.87 4.494l-7.828 23.048c-.29.87-.435 1.667-.435 2.102 0 1.087.435 1.522 1.522 1.522.725 0 1.522-.435 2.247-1.232.725-.87 1.522-2.392 2.392-4.639l1.377-3.624h1.522l-1.957 5.581c-1.812 5.146-5.146 7.828-10.074 7.828-4.494 0-6.813-2.102-6.813-6.161 0-1.667.29-3.624 1.087-5.726l7.393-21.671c.145-.725.507-1.522.507-2.247zm3.262-20.076c.579-1.088 1.667-1.812 2.681-2.392 1.232-.58 2.392-.87 3.914-.87 1.812 0 3.189.435 4.059 1.232.87.725 1.522 1.957 1.522 3.479 0 1.377-.29 2.537-1.087 3.624a7.17 7.17 0 0 1-2.899 2.392c-1.232.58-2.537.87-3.914.87-1.667 0-3.044-.435-4.059-1.232-.87-.725-1.522-1.812-1.522-3.334.29-1.305.58-2.682 1.305-3.769zm22.033 50.082c0 1.523.725 2.247 2.247 2.247 1.087 0 2.102-.58 3.189-1.667s1.957-2.681 2.682-4.856l1.232-3.189h1.522l-1.522 4.349c-1.957 5.871-5.726 8.915-11.307 8.915-2.537 0-4.493-.58-5.726-1.957-1.377-1.377-1.956-3.189-1.956-5.436 0-1.377.289-2.899.724-4.494l7.538-26.382h-6.813l.435-1.522h6.958l3.334-11.452c4.349 0 7.973-.435 11.017-1.087l-3.624 12.539h8.407l-.145 1.522h-8.77l-8.914 30.876c-.363.652-.508 1.087-.508 1.594zm43.053-10.726c1.667-3.334 2.899-6.451 3.624-9.495-2.102-1.087-3.769-2.537-5.001-4.204-1.378-1.667-1.957-3.479-1.812-5.436 0-1.522.434-2.899 1.377-3.769.869-.869 2.102-1.377 3.624-1.377 3.334 0 5.001 2.247 5.001 6.813 0 3.044-.725 6.451-2.102 10.365s-3.189 7.827-5.436 11.741-4.639 7.538-7.248 10.727c-2.537 3.044-5.436 5.726-8.408 8.118-3.044 2.392-6.305 4.059-9.494 5.146-1.957.725-3.769 1.232-5.436 1.232s-2.899-.29-3.769-1.087c-.87-.725-1.377-1.812-1.377-3.189s.435-2.392 1.522-3.334c.87-.87 2.247-1.377 3.769-1.377 3.044 0 5.726 1.812 7.972 5.29 3.479-1.667 6.813-4.058 9.785-6.957l-5.871-36.022c-.29-1.378-.58-2.247-.725-2.9-.289-.434-.579-.724-1.087-.724-.58 0-1.087.29-1.667 1.087-.435.725-1.232 2.247-1.957 4.494l-1.377 3.623h-1.522l1.957-5.58c1.087-2.9 2.247-4.856 3.769-6.016 1.522-1.232 3.334-1.667 5.436-1.667s3.769.58 5.001 1.812 2.102 3.334 2.537 6.305l3.479 25.803c2.029-2.972 3.841-6.233 5.436-9.422z" fill="#387ed1"/><defs ><path id="B" d="M136.115 324.488c1.45 0 2.682 1.232 2.682 2.681s-1.232 2.682-2.682 2.682-2.682-1.232-2.682-2.682 1.16-2.681 2.682-2.681z"/><path id="C" d="M136.115 304.338c1.45 0 2.682 1.233 2.682 2.682s-1.232 2.682-2.682 2.682-2.682-1.232-2.682-2.682 1.16-2.682 2.682-2.682z"/><path id="D" d="M136.115 284.189c1.45 0 2.682 1.232 2.682 2.682s-1.232 2.682-2.682 2.682-2.682-1.232-2.682-2.682 1.16-2.682 2.682-2.682z"/></defs></svg>