<svg xmlns="http://www.w3.org/2000/svg" viewBox="0 0 1225.53 905.85" xmlns:v="https://vecta.io/nano"><path d="M645.57,755.33A241.6,241.6,0,0,0,722,720c55.49-38.61,118-66.66,184.42-78.92q5-.93,10.05-2.15a178.28,178.28,0,0,0,98.16-63,566.12,566.12,0,0,1,59.18-63.61c33-30.74,50.37-72.3,40.33-113.5-7.72-31.71-35.4-63.44-89.28-81.12-77.29-25.35-76-86.84-135.91-141.88-35-32.2-149.58-38.68-186.8-29.61a152.25,152.25,0,0,0-99.9,79.1,114.78,114.78,0,0,1-75.64,59.55L526,285C394.7,317,314.62,450.26,348.54,581.55,382,711.2,516.12,789.57,645.57,755.33Z" fill="none" stroke="#ccc" stroke-linecap="round" stroke-linejoin="round" stroke-width="6" stroke-dasharray="1.99 27.83"/><path d="M191.81 605.16l161.78-137.62C418 412.49 441.53 383 441.53 340.67c0-46.32-32.89-73.18-75.85-73.18S293.18 291 257.6 338l-59.08-46.32c45-62.43 89.29-98 173.2-98 92 0 155.07 56.39 155.07 140.3v1.35c0 73.84-38.94 114.12-122.18 181.92L308 597.77h223.49v72.5H191.81zm416.87-168.5v-1.34c0-134.26 81.9-243 205.41-243 122.85 0 204.08 107.41 204.08 241.67v1.34c0 134.26-81.9 243-205.42 243S608.68 570.92 608.68 436.66zm324.23 0v-1.34c0-92.64-47.66-168.5-120.16-168.5S693.93 340.67 693.93 434v1.34c0 92.64 47 168.49 120.16 168.49s118.82-75.2 118.82-167.17zM177.34 219.83h-41.25c7.25 5.75 12.5 14 14 25.5h27.25v12.5h-27c-2.5 25.5-22.75 41.75-54.75 42.75 19.5 20.25 40.75 45.75 61.75 71.5h-24c-19.5-23.5-37.75-45.25-61.25-70.25v-15.5h13.75c27 0 41.5-11.25 43.25-28.5h-57v-12.5h56.25c-3.5-14.5-16.75-21.75-38.5-21.75H72.09v-16.25h105.25z" fill="#fcb040"/><g fill="#387ed1"><circle cx="889.96" cy="232.1" r="7.5"/><circle cx="943.92" cy="195.81" r="7.5"/><circle cx="926.24" cy="286.05" r="7.5"/><circle cx="980.2" cy="249.77" r="7.5"/><circle cx="1034.16" cy="213.49" r="7.5"/><circle cx="1088.12" cy="177.21" r="7.5"/><circle cx="962.52" cy="340.01" r="7.5"/><circle cx="1016.48" cy="303.73" r="7.5"/><circle cx="1070.44" cy="267.45" r="7.5"/><circle cx="1124.4" cy="231.16" r="7.5"/><circle cx="1052.76" cy="357.69" r="7.5"/><circle cx="1106.72" cy="321.41" r="7.5"/><circle cx="1160.68" cy="285.12" r="7.5"/></g></svg>